<svg width="16" xmlns="http://www.w3.org/2000/svg" height="16" id="screenshot-5160a632-a10e-80d8-8007-9e56859eafac" viewBox="5992 6333 16 16" xmlns:xlink="http://www.w3.org/1999/xlink" fill="none" version="1.1"><g id="shape-5160a632-a10e-80d8-8007-9e56859eafac"><g class="fills" id="fills-5160a632-a10e-80d8-8007-9e56859eafac"><path d="M6000,6345L5995,6340L5996.39990234375,6338.5498046875L5999,6341.14990234375L5999,6333L6001,6333L6001,6341.14990234375L6003.60009765625,6338.5498046875L6005,6340ZM5994,6349C5993.4501953125,6349,5992.9794921875,6348.80419921875,5992.587890625,6348.4130859375C5992.19677734375,6348.021484375,5992.00048828125,6347.55078125,5992,6347L5992,6344L5994,6344L5994,6347L6006,6347L6006,6344L6008,6344L6008,6347C6008,6347.5498046875,6007.80419921875,6348.02099609375,6007.4130859375,6348.4130859375C6007.021484375,6348.80517578125,6006.55078125,6349.00048828125,6006,6349Z"/></g></g></svg>