<svg width="119" xmlns="http://www.w3.org/2000/svg" height="119" id="screenshot-0b1dd604-b461-80cd-8007-3b445cc810da" viewBox="0 0 119 119" xmlns:xlink="http://www.w3.org/1999/xlink" fill="none" version="1.1"><g id="shape-0b1dd604-b461-80cd-8007-3b445cc810da" rx="0" ry="0"><g id="shape-0b1dd604-b461-80cd-8007-3b441210e1da"><g class="fills" id="fills-0b1dd604-b461-80cd-8007-3b441210e1da"><ellipse cx="59.5" cy="59.5" rx="59.5" ry="59.5" transform="matrix(1.000000, 0.000000, 0.000000, 1.000000, 0.000000, 0.000000)" style="fill: rgb(0, 0, 0); fill-opacity: 1;"/></g></g><g id="shape-0b1dd604-b461-80cd-8007-3b45457901dd" style="opacity: 1;"><g class="fills" id="fills-0b1dd604-b461-80cd-8007-3b45457901dd"><path d="M30.3701171875,84.52001953125L30.3701171875,84.52001953125C27.92333984375,84.52001953125,25.5234375,84.22021484375,23.169921875,83.6201171875C20.816650390625,83.02001953125,18.873291015625,82,17.340087890625,80.56005859375C15.806640625,79.1201171875,15.0400390625,77.2001953125,15.0400390625,74.7998046875L15.0400390625,74.7998046875C15.0400390625,73.88671875,15.20654296875,72.79345703125,15.5400390625,71.52001953125C15.873291015625,70.25341796875,16.546630859375,68.94677734375,17.56005859375,67.60009765625L17.56005859375,67.60009765625L19.2099609375,67.60009765625C19.31005859375,69.90673828125,19.7900390625,72.103515625,20.64990234375,74.18994140625C21.5166015625,76.27685546875,22.7900390625,77.97998046875,24.469970703125,79.2998046875C26.14990234375,80.6201171875,28.236572265625,81.27978515625,30.72998046875,81.27978515625L30.72998046875,81.27978515625C32.69677734375,81.27978515625,34.256591796875,80.88330078125,35.409912109375,80.08984375C36.563232421875,79.296875,37.4033203125,78.32666015625,37.929931640625,77.18017578125C38.456787109375,76.02685546875,38.719970703125,74.87353515625,38.719970703125,73.72021484375L38.719970703125,73.72021484375C38.719970703125,71.8466796875,38.169921875,70.26318359375,37.070068359375,68.97021484375C35.96337890625,67.669921875,34.56005859375,66.5166015625,32.860107421875,65.509765625C31.1533203125,64.50341796875,29.32666015625,63.49658203125,27.3798828125,62.490234375C25.43994140625,61.4833984375,23.606689453125,60.36669921875,21.8798828125,59.14013671875C20.146728515625,57.91357421875,18.739990234375,56.4267578125,17.659912109375,54.68017578125C16.580078125,52.9267578125,16.0400390625,50.77685546875,16.0400390625,48.22998046875L16.0400390625,48.22998046875C16.0400390625,43.91015625,17.7099609375,40.5400390625,21.050048828125,38.1201171875C24.38330078125,35.693359375,28.81005859375,34.47998046875,34.330078125,34.47998046875L34.330078125,34.47998046875C36.776611328125,34.47998046875,39.11669921875,34.68310546875,41.35009765625,35.08984375C43.583251953125,35.49658203125,45.373291015625,35.93994140625,46.719970703125,36.419921875L46.719970703125,36.419921875L46.719970703125,47.7998046875L45.06005859375,47.7998046875C44.29345703125,45.16015625,43.320068359375,43.1201171875,42.139892578125,41.68017578125C40.966552734375,40.240234375,39.67333984375,39.22021484375,38.260009765625,38.6201171875C36.840087890625,38.02001953125,35.38671875,37.72021484375,33.89990234375,37.72021484375L33.89990234375,37.72021484375C32.0732421875,37.72021484375,30.6201171875,38.04345703125,29.5400390625,38.68994140625C28.4599609375,39.33642578125,27.679931640625,40.1298828125,27.199951171875,41.06982421875C26.719970703125,42.00341796875,26.47998046875,42.9501953125,26.47998046875,43.91015625L26.47998046875,43.91015625C26.47998046875,45.49658203125,27.02001953125,46.87646484375,28.10009765625,48.0498046875C29.179931640625,49.22998046875,30.586669921875,50.2998046875,32.320068359375,51.259765625C34.046630859375,52.22021484375,35.8798828125,53.2265625,37.820068359375,54.27978515625C39.7666015625,55.33349609375,41.59326171875,56.533203125,43.300048828125,57.8798828125C45,59.2265625,46.4033203125,60.8466796875,47.510009765625,62.740234375C48.610107421875,64.63330078125,49.159912109375,66.9501953125,49.159912109375,69.68994140625L49.159912109375,69.68994140625C49.159912109375,72.9033203125,48.3466796875,75.61328125,46.719970703125,77.81982421875C45.086669921875,80.033203125,42.853271484375,81.703125,40.02001953125,82.830078125C37.186767578125,83.95654296875,33.969970703125,84.52001953125,30.3701171875,84.52001953125ZM100.139892578125,84.52001953125L100.139892578125,84.52001953125C97.833251953125,84.52001953125,95.89990234375,84.16015625,94.340087890625,83.43994140625C92.780029296875,82.72021484375,91.4599609375,81.783203125,90.3798828125,80.6298828125C89.300048828125,79.4765625,88.306640625,78.22998046875,87.39990234375,76.89013671875L87.39990234375,76.89013671875L76.8798828125,60.830078125C76.353271484375,60.0166015625,75.933349609375,59.5,75.6201171875,59.27978515625C75.313232421875,59.06689453125,74.943359375,58.9599609375,74.510009765625,58.9599609375L74.510009765625,58.9599609375C74.030029296875,58.9599609375,73.63330078125,59.1533203125,73.320068359375,59.5400390625C73.006591796875,59.919921875,72.85009765625,60.54345703125,72.85009765625,61.41015625L72.85009765625,61.41015625L72.85009765625,76.240234375C72.85009765625,78.59326171875,73.2099609375,80.080078125,73.929931640625,80.7001953125C74.64990234375,81.32666015625,75.969970703125,81.6865234375,77.889892578125,81.77978515625L77.889892578125,81.77978515625L77.889892578125,83.43994140625L57.3701171875,83.43994140625L57.3701171875,81.77978515625C58.763427734375,81.6865234375,59.7734375,81.32666015625,60.39990234375,80.7001953125C61.02001953125,80.080078125,61.330078125,78.59326171875,61.330078125,76.240234375L61.330078125,76.240234375L61.330078125,42.759765625C61.330078125,40.40673828125,60.9833984375,38.90673828125,60.2900390625,38.259765625C59.590087890625,37.61328125,58.256591796875,37.2666015625,56.2900390625,37.22021484375L56.2900390625,37.22021484375L56.2900390625,35.56005859375L76.81005859375,35.56005859375L76.81005859375,37.22021484375C75.416748046875,37.2666015625,74.409912109375,37.61328125,73.7900390625,38.259765625C73.163330078125,38.90673828125,72.85009765625,40.40673828125,72.85009765625,42.759765625L72.85009765625,42.759765625L72.85009765625,56.080078125L73,56.080078125L89.1201171875,42.759765625C89.93994140625,42.08642578125,90.566650390625,41.47314453125,91,40.919921875C91.4267578125,40.37353515625,91.639892578125,39.85986328125,91.639892578125,39.3798828125L91.639892578125,39.3798828125C91.639892578125,38.080078125,90.2265625,37.35986328125,87.39990234375,37.22021484375L87.39990234375,37.22021484375L87.39990234375,35.56005859375L103.739990234375,35.56005859375L103.739990234375,37.22021484375C102.300048828125,37.4599609375,100.97998046875,37.96337890625,99.780029296875,38.72998046875C98.580078125,39.49658203125,97.283447265625,40.47998046875,95.889892578125,41.68017578125L95.889892578125,41.68017578125L85.449951171875,50.31982421875C85.070068359375,50.6533203125,84.889892578125,50.990234375,84.909912109375,51.330078125C84.936767578125,51.66357421875,85.11669921875,52.1201171875,85.449951171875,52.7001953125L85.449951171875,52.7001953125L100.5,76.02001953125C101.893310546875,78.2333984375,103.166748046875,79.74658203125,104.320068359375,80.56005859375C105.466552734375,81.37353515625,106.49658203125,81.77978515625,107.409912109375,81.77978515625L107.409912109375,81.77978515625L107.409912109375,83.43994140625C106.449951171875,83.7734375,105.31005859375,84.03662109375,103.989990234375,84.22998046875C102.669921875,84.42333984375,101.38671875,84.52001953125,100.139892578125,84.52001953125Z" style="fill: rgb(255, 255, 255); fill-opacity: 1;"/></g></g></g></svg>