<?xml version="1.0" encoding="UTF-8" standalone="no"?>
<!-- Created with Inkscape (http://www.inkscape.org/) -->

<svg
   width="31.656982mm"
   height="22.69323mm"
   viewBox="0 0 31.656982 22.69323"
   version="1.1"
   id="svg1"
   xml:space="preserve"
   xmlns="http://www.w3.org/2000/svg"
   xmlns:svg="http://www.w3.org/2000/svg"><defs
     id="defs1" /><g
     id="layer1"
     transform="translate(-387.37318,-103.94372)"><path
       id="path325"
       style="fill:#00183c;stroke-width:0.593288;stroke-linecap:round;stroke-linejoin:round"
       d="m 390.2533,103.94372 -1.3024,0.23516 3.15175,8.01519 c 0.0516,0.12567 0.0417,0.30186 -0.0415,0.41196 -0.0634,0.0838 -0.18927,0.13191 -0.2931,0.11589 -0.13938,-0.0215 -0.27494,-0.13444 -0.32823,-0.26695 l -1.64424,-4.18434 -0.85294,0.14931 1.98272,5.60754 c 0.0329,0.0927 -0.007,0.19558 -0.0938,0.24189 -1.03407,0.55379 -1.76722,0.97731 -2.49963,1.6421 -0.29511,0.26788 -0.56376,0.56764 -0.72999,0.9026 -0.14334,0.28887 -0.24737,0.60549 -0.22596,0.88881 0.0241,0.3183 0.1732,0.65281 0.38141,0.91211 0.23274,0.28987 0.57612,0.51796 0.93601,0.65457 1.34363,0.50998 2.8198,0.54316 4.34101,0.49361 0.56134,-0.0217 1.12245,-0.0658 1.68135,-0.12969 0.0281,-0.003 0.0565,-5.8e-4 0.0834,0.008 l 21.67134,6.99547 1.50504,-0.65119 -12.5193,-8.04861 -10.21222,-2.75564 c -0.12837,-0.0338 -0.26836,-0.15986 -0.30631,-0.2969 -0.0279,-0.10091 0.005,-0.23146 0.0809,-0.30352 0.10155,-0.0963 0.28203,-0.12449 0.41086,-0.0866 l 21.05723,5.68143 1.41461,-0.53071 -8.93618,-5.0756 c -0.13984,-0.0789 -0.13329,-0.2825 0.0113,-0.35227 1.43865,-0.70253 2.87395,-1.45236 4.49614,-2.31384 l -0.85293,-0.17752 c -0.16215,-0.0319 -0.31667,-0.13782 -0.37101,-0.28371 -0.0365,-0.0979 -0.009,-0.23211 0.0638,-0.3069 0.10812,-0.11081 0.29173,-0.1412 0.45226,-0.10565 l 5.9362,1.2328 0.32927,-0.10179 -2.83442,-1.33397 c -0.1068,-0.0501 -0.14674,-0.18164 -0.0858,-0.28268 l 0.0917,-0.15054 c 0.0649,-0.10623 0.11053,-0.28829 0.0914,-0.46939 -0.0164,-0.15244 -0.0747,-0.28036 -0.13429,-0.35227 -0.0619,-0.0748 -0.1051,-0.0888 -0.14011,-0.0892 h -0.42769 c -0.12907,-2.9e-4 -0.22367,-0.12154 -0.19254,-0.2468 l 0.81951,-3.26887 -0.50986,0.10547 -2.68389,3.10085 c -0.0583,0.0675 -0.15443,0.0879 -0.23515,0.05 l -1.58507,-0.74747 -0.68033,0.17598 0.50066,0.9397 c 0.0674,0.12529 -0.0147,0.27876 -0.15636,0.29218 -0.78945,0.0771 -0.19378,0.0203 -0.90383,0.0926 -0.0747,0.008 -0.1474,-0.0272 -0.18793,-0.0904 -0.21513,-0.33804 -0.99186,-1.36337 -2.72652,-1.22115 -0.87317,0.0716 -1.51223,0.5163 -1.95022,0.963 -0.34585,0.35273 -0.47501,0.59992 -0.54573,0.72877 0.0933,0.12531 0.20822,0.2495 0.42525,0.34767 0.28904,0.13075 0.68195,0.21926 1.11476,0.256 0.86582,0.0735 1.898,-0.0617 2.62809,-0.34062 0.16612,-0.0584 0.33738,-0.0558 0.46065,0.0366 0.0834,0.0625 0.13195,0.19002 0.11129,0.29218 -0.0305,0.15098 -0.16688,0.28131 -0.31931,0.33405 -0.86015,0.32863 -1.95776,0.47027 -2.93989,0.38691 -0.49108,-0.0417 -0.95488,-0.13918 -1.34869,-0.31732 -0.29819,-0.13488 -0.52742,-0.35474 -0.7116,-0.60735 -0.44398,0.0609 -0.88712,0.12168 -1.32907,0.18763 -0.044,0.006 -0.0889,-0.002 -0.12754,-0.0242 z" /></g></svg>
